HIERARCHY
ROOT Hips
{
	OFFSET 0.00000 0.00000 0.00000
	CHANNELS 6 Xposition Yposition Zposition Zrotation Yrotation Xrotation 
	JOINT LHipJoint
	{
		OFFSET 0 0 0
		CHANNELS 3 Zrotation Yrotation Xrotation
		JOINT LeftHip
		{
			OFFSET 1.56857 -1.73443 1.15205
			CHANNELS 3 Zrotation Yrotation Xrotation
			JOINT LeftKnee
			{
				OFFSET 2.39362 -6.57643 0.00000
				CHANNELS 3 Zrotation Yrotation Xrotation
				JOINT LeftAnkle
				{
					OFFSET 2.50952 -6.89485 0.00000
					CHANNELS 3 Zrotation Yrotation Xrotation
					JOINT LeftToe
					{
						OFFSET 0.17171 -0.47178 1.88682
						CHANNELS 3 Zrotation Yrotation Xrotation
						End Site
						{
							OFFSET 0.00000 -0.00000 0.98146
						}
					}
				}
			}
		}
	}
	JOINT RHipJoint
	{
		OFFSET 0 0 0
		CHANNELS 3 Zrotation Yrotation Xrotation
		JOINT RightHip
		{
			OFFSET -1.28153 -1.73443 1.15205
			CHANNELS 3 Zrotation Yrotation Xrotation
			JOINT RightKnee
			{
				OFFSET -2.26861 -6.23296 0.00000
				CHANNELS 3 Zrotation Yrotation Xrotation
				JOINT RightAnkle
				{
					OFFSET -2.54143 -6.98254 0.00000
					CHANNELS 3 Zrotation Yrotation Xrotation
					JOINT RightToe
					{
						OFFSET -0.23309 -0.64041 1.93119
						CHANNELS 3 Zrotation Yrotation Xrotation
						End Site
						{
							OFFSET -0.00000 -0.00000 1.02013
						}
					}
				}
			}
		}
	}
	JOINT lowerback
	{
		OFFSET 0 0 0
		CHANNELS 3 Zrotation Yrotation Xrotation
		JOINT Chest
		{
			OFFSET -0.07096 2.10460 -0.27878
			CHANNELS 3 Zrotation Yrotation Xrotation
			JOINT Chest2
			{
				OFFSET -0.00826 2.13662 -0.08279
				CHANNELS 3 Zrotation Yrotation Xrotation
				JOINT lowerneck
				{
					OFFSET 0 0 0
					CHANNELS 3 Zrotation Yrotation Xrotation
					JOINT Neck
					{
						OFFSET 0.03239 1.77799 0.24435
						CHANNELS 3 Zrotation Yrotation Xrotation
						JOINT Head
						{
							OFFSET 0.01026 1.74194 -0.49664
							CHANNELS 3 Zrotation Yrotation Xrotation
							End Site
							{
								OFFSET 0.00170 1.83057 -0.19653
							}
						}
					}
				}
				JOINT LeftCollar
				{
					OFFSET 0 0 0
					CHANNELS 3 Zrotation Yrotation Xrotation
					JOINT LeftShoulder
					{
						OFFSET 3.19178 1.35907 -0.31412
CHANNELS 3 Zrotation Xrotation Yrotation
						JOINT LeftElbow
						{
OFFSET 0 -4.852470 -0.000000
CHANNELS 3 Zrotation Xrotation Yrotation
							JOINT LeftWrist
							{
OFFSET 0 -3.555840 0.000000
CHANNELS 3 Zrotation Xrotation Yrotation
								JOINT lhand
								{
									OFFSET 0 0 0
CHANNELS 3 Zrotation Xrotation Yrotation
									JOINT LFingers
									{
OFFSET 0 -0.693200 0.000000
CHANNELS 3 Zrotation Xrotation Yrotation
										End Site
										{
OFFSET 0 -0.558880 0.000000
										}
									}
								}
								JOINT LThumb
								{
OFFSET 0 0.000000 0.000000
CHANNELS 3 Zrotation Xrotation Yrotation
									End Site
									{
OFFSET 0 -0.567410 0.567410
									}
								}
							}
						}
					}
				}
				JOINT RightCollar
				{
					OFFSET 0 0 0
					CHANNELS 3 Zrotation Yrotation Xrotation
					JOINT RightShoulder
					{
						OFFSET -3.28999 1.24191 -0.26899
CHANNELS 3 Zrotation Xrotation Yrotation
						JOINT RightElbow
						{
OFFSET 0 -4.644620 0.000000
CHANNELS 3 Zrotation Xrotation Yrotation
							JOINT RightWrist
							{
OFFSET 0 -3.407030 0.000000
CHANNELS 3 Zrotation Xrotation Yrotation
								JOINT rhand
								{
									OFFSET 0 0 0
CHANNELS 3 Zrotation Xrotation Yrotation
									JOINT RFingers
									{
OFFSET 0 -0.619580 0.000000
CHANNELS 3 Zrotation Xrotation Yrotation
										End Site
										{
OFFSET 0 -0.499520 0.000000
										}
									}
								}
								JOINT RThumb
								{
OFFSET 0 0.000000 0.000000
CHANNELS 3 Zrotation Xrotation Yrotation
									End Site
									{
OFFSET 0 -0.507150 0.507150
									}
								}
							}
						}
					}
				}
			}
		}
	}
}
MOTION
Frames: 6
Frame Time: 0.008333333333333333
-29.474500 17.017400 1.187700 38.651300 86.314100 38.232800 0.000000 0.000000 0.000000 -14.713900 2.796100 12.200000 0.016400 -0.826400 -2.271300 0.214400 8.909500 -16.044300 0.214700 -2.983200 -8.232100 0.000000 0.000000 0.000000 8.877600 -6.075000 8.055900 -0.014200 -0.770400 2.117400 -0.742900 1.199400 -15.920800 -0.005200 0.466200 -1.281100 -5.101100 1.775800 5.201400 -0.290700 2.088400 0.732200 2.408200 1.091600 -2.331800 3.461800 1.973500 -20.926000 -1.739700 2.311100 24.123100 -0.838500 1.218800 11.382700 -0.000000 0.000000 0.000000 3.158000 1.873100 -38.337600 12.413500 -20.421900 2.244500 19.855300 6.539100 25.688800 0.000000 0.000000 0.000000 -7.125000 0.000000 0.000000 -5.966300 3.020400 -5.675000 -0.000000 0.000000 0.000000 -3.713200 4.836700 35.741100 -16.409200 -26.072400 -3.824000 -11.711300 10.295000 30.791700 0.000000 0.000000 0.000000 7.125000 0.000000 -0.000000 22.742000 59.838600 -8.501300
-29.477613 17.016174 1.188926 39.801297 86.233736 39.369686 0.000000 0.000000 0.000000 -14.828975 2.827133 12.157837 0.015834 -0.811497 -2.230363 0.223455 8.812063 -16.056751 0.191402 -2.817001 -7.769819 0.000000 0.000000 0.000000 8.786483 -5.959548 8.100798 -0.014011 -0.763514 2.098441 -0.746296 1.103095 -15.984280 -0.005860 0.492988 -1.354673 -5.272392 1.773348 5.263559 -0.285889 2.071705 0.723428 2.508278 1.086129 -2.380471 3.408507 1.981329 -20.955901 -1.710460 2.332323 24.163659 -0.815296 1.227383 11.403357 0.000000 0.000000 0.000000 3.063299 1.789340 -38.081794 12.317290 -20.278811 2.211015 19.805591 6.770288 25.765674 0.000000 0.000000 0.000000 -7.125000 0.000000 0.000000 -6.004124 2.949846 -5.719144 0.000000 0.000000 0.000000 -3.741686 4.800102 35.750438 -16.379205 -26.032124 -3.810889 -11.754029 10.381589 30.844427 0.000000 0.000000 0.000000 7.125000 0.000000 0.000000 22.740114 59.896609 -8.532238
-29.477623 17.016277 1.189089 39.751889 86.215869 39.333496 0.000000 0.000000 0.000000 -14.843967 2.799303 12.143776 0.015445 -0.803154 -2.207245 0.236233 8.775528 -16.187458 0.168902 -2.646991 -7.297432 0.000000 0.000000 0.000000 8.749707 -6.016249 8.039496 -0.014443 -0.776663 2.134532 -0.746411 1.185593 -15.963545 -0.005989 0.499653 -1.372929 -5.271708 1.775682 5.259765 -0.301645 2.075132 0.728662 2.491518 1.087573 -2.372674 3.384556 1.985346 -21.036774 -1.646558 2.325533 24.209803 -0.788281 1.230028 11.435183 0.000000 0.000000 0.000000 3.039959 1.703808 -37.866233 12.247674 -20.174992 2.186927 20.435456 6.712839 25.715427 0.000000 0.000000 0.000000 -7.125000 0.000000 0.000000 -5.617502 2.892411 -5.353025 0.000000 0.000000 0.000000 -3.713969 4.775738 35.768995 -16.382630 -26.036703 -3.812316 -11.780092 10.332636 30.728103 0.000000 0.000000 0.000000 7.125000 0.000000 0.000000 22.619262 59.796382 -8.429584
-29.476853 17.016881 1.187772 39.322423 86.166408 38.928806 0.000000 0.000000 0.000000 -14.883333 2.774674 12.157982 0.016147 -0.820786 -2.255793 0.223778 8.939120 -16.203436 0.190594 -2.810531 -7.751688 0.000000 0.000000 0.000000 8.686043 -6.125957 7.918044 -0.015579 -0.806030 2.215219 -0.744741 1.345170 -15.902652 -0.006415 0.518554 -1.424981 -5.239352 1.793673 5.223786 -0.336225 2.102583 0.729649 2.436743 1.100412 -2.351304 3.395839 1.974018 -21.048559 -1.656771 2.311473 24.276135 -0.796035 1.224409 11.462498 0.000000 0.000000 0.000000 3.056535 1.652263 -37.695483 12.199923 -20.103807 2.170493 20.813953 6.796047 25.657621 0.000000 0.000000 0.000000 -7.125000 0.000000 0.000000 -5.382175 2.885434 -5.127494 0.000000 0.000000 0.000000 -3.682239 4.782193 35.868294 -16.427358 -26.096593 -3.832015 -11.838940 10.258825 30.809462 0.000000 0.000000 0.000000 7.125000 0.000000 0.000000 22.623630 59.884325 -8.479175
-29.476932 17.017618 1.186727 40.041814 86.076908 39.650286 0.000000 0.000000 0.000000 -15.018196 2.789028 12.163596 0.016609 -0.831557 -2.285392 0.208224 9.060689 -16.131879 0.208199 -2.937190 -8.104023 0.000000 0.000000 0.000000 8.543557 -6.192791 7.859244 -0.016109 -0.820203 2.254143 -0.741849 1.394692 -15.858336 -0.012606 0.718012 -1.973199 -5.299242 1.805030 5.201373 -0.388968 2.115366 0.736193 2.415511 1.106787 -2.333132 3.494469 2.006151 -21.104939 -1.717776 2.340491 24.338687 -0.829991 1.239046 11.500382 0.000000 0.000000 0.000000 3.091164 1.589539 -37.669719 12.149056 -20.027854 2.153091 20.884430 6.858363 25.638002 0.000000 0.000000 0.000000 -7.125000 0.000000 0.000000 -5.337375 2.893284 -5.083634 0.000000 0.000000 0.000000 -3.651302 4.802806 35.930867 -16.474197 -26.159406 -3.852696 -11.854883 10.251284 31.007080 0.000000 0.000000 0.000000 7.125000 0.000000 0.000000 22.767837 60.068580 -8.637647
-29.477716 17.017370 1.187073 40.312119 86.072766 39.904922 0.000000 0.000000 0.000000 -14.945922 3.016592 12.021061 0.014766 -0.782965 -2.151772 0.221044 8.783851 -15.994662 0.190414 -2.808244 -7.745480 0.000000 0.000000 0.000000 8.530080 -6.208305 7.874511 -0.015985 -0.816254 2.243453 -0.739453 1.348161 -15.843858 -0.023281 0.977538 -2.687110 -5.277662 1.814390 5.205781 -0.433440 2.128673 0.746838 2.356537 1.112842 -2.323127 3.545518 2.003552 -21.045054 -1.721852 2.323086 24.318092 -0.843167 1.236037 11.481237 0.000000 0.000000 0.000000 3.217942 1.584056 -37.977717 12.179901 -20.073916 2.163697 20.962042 6.552322 25.645542 0.000000 0.000000 0.000000 -7.125000 0.000000 0.000000 -5.291139 2.871679 -5.041322 0.000000 0.000000 0.000000 -3.555737 4.811809 35.809687 -16.479570 -26.166637 -3.855022 -11.846603 10.332383 30.955237 0.000000 0.000000 0.000000 7.125000 0.000000 0.000000 22.733871 60.019341 -8.596963
